<svg width="48" height="48" viewBox="0 0 48 48" fill="none" xmlns="http://www.w3.org/2000/svg">
<path d="M39 6H36C36 4.346 34.654 3 33 3C31.346 3 30 4.346 30 6H18C18 4.346 16.654 3 15 3C13.346 3 12 4.346 12 6H9C6.243 6 4 8.243 4 11V40C4 42.757 6.243 45 9 45H39C41.757 45 44 42.757 44 40V11C44 8.243 41.757 6 39 6ZM32 6C32 5.449 32.448 5 33 5C33.552 5 34 5.449 34 6V8C34 8.551 33.552 9 33 9C32.448 9 32 8.551 32 8V6ZM14 6C14 5.449 14.448 5 15 5C15.552 5 16 5.449 16 6V8C16 8.551 15.552 9 15 9C14.448 9 14 8.551 14 8V6ZM6 11C6 9.346 7.346 8 9 8H12C12 9.654 13.346 11 15 11C16.654 11 18 9.654 18 8H30C30 9.654 31.346 11 33 11C34.654 11 36 9.654 36 8H39C40.654 8 42 9.346 42 11V15H6V11ZM42 40C42 41.654 40.654 43 39 43H9C7.346 43 6 41.654 6 40V17H42V40Z" fill="white"/>
<path d="M12 28H15C16.103 28 17 27.103 17 26V23C17 21.897 16.103 21 15 21H12C10.897 21 10 21.897 10 23V26C10 27.103 10.897 28 12 28ZM12 23H15L15.002 26H12V23Z" fill="white"/>
<path d="M22.5 28H25.5C26.603 28 27.5 27.103 27.5 26V23C27.5 21.897 26.603 21 25.5 21H22.5C21.397 21 20.5 21.897 20.5 23V26C20.5 27.103 21.397 28 22.5 28ZM22.5 23H25.5L25.502 26H22.5V23Z" fill="white"/>
<path d="M33 28H36C37.103 28 38 27.103 38 26V23C38 21.897 37.103 21 36 21H33C31.897 21 31 21.897 31 23V26C31 27.103 31.897 28 33 28ZM33 23H36L36.002 26H33V23Z" fill="white"/>
<path d="M12 39H15C16.103 39 17 38.103 17 37V34C17 32.897 16.103 32 15 32H12C10.897 32 10 32.897 10 34V37C10 38.103 10.897 39 12 39ZM12 34H15L15.002 37H12V34Z" fill="white"/>
<path d="M22.5 39H25.5C26.603 39 27.5 38.103 27.5 37V34C27.5 32.897 26.603 32 25.5 32H22.5C21.397 32 20.5 32.897 20.5 34V37C20.5 38.103 21.397 39 22.5 39ZM22.5 34H25.5L25.502 37H22.5V34Z" fill="white"/>
<path d="M33 39H36C37.103 39 38 38.103 38 37V34C38 32.897 37.103 32 36 32H33C31.897 32 31 32.897 31 34V37C31 38.103 31.897 39 33 39ZM33 34H36L36.002 37H33V34Z" fill="white"/>
</svg>
